<svg width="49" height="46" viewBox="0 0 49 46" fill="none" xmlns="http://www.w3.org/2000/svg">
<path d="M24.106 11.2062C17.2669 11.2062 11.7505 16.4718 11.7505 23C11.7505 29.5282 17.2669 34.7938 24.106 34.7938C30.945 34.7938 36.4614 29.5282 36.4614 23C36.4614 16.4718 30.945 11.2062 24.106 11.2062ZM24.106 30.6675C19.6864 30.6675 16.0733 27.2289 16.0733 23C16.0733 18.7711 19.6756 15.3325 24.106 15.3325C28.5363 15.3325 32.1386 18.7711 32.1386 23C32.1386 27.2289 28.5255 30.6675 24.106 30.6675ZM39.8486 10.7238C39.8486 12.2532 38.5582 13.4746 36.9668 13.4746C35.3645 13.4746 34.0849 12.2429 34.0849 10.7238C34.0849 9.20462 35.3753 7.97289 36.9668 7.97289C38.5582 7.97289 39.8486 9.20462 39.8486 10.7238ZM48.0318 13.5157C47.849 9.83075 46.9672 6.56666 44.1391 3.87738C41.3218 1.18811 37.9023 0.346424 34.0419 0.161665C30.0632 -0.0538882 18.1379 -0.0538882 14.1593 0.161665C10.3096 0.33616 6.8901 1.17784 4.06202 3.86712C1.23393 6.5564 0.36292 9.82048 0.169363 13.5054C-0.0564542 17.3032 -0.0564542 28.6865 0.169363 32.4843C0.352167 36.1693 1.23393 39.4333 4.06202 42.1226C6.8901 44.8119 10.2989 45.6536 14.1593 45.8383C18.1379 46.0539 30.0632 46.0539 34.0419 45.8383C37.9023 45.6638 41.3218 44.8222 44.1391 42.1226C46.9565 39.4333 47.8382 36.1693 48.0318 32.4843C48.2576 28.6865 48.2576 17.3135 48.0318 13.5157ZM42.8918 36.5593C42.053 38.5711 40.4293 40.1211 38.3109 40.9319C35.1387 42.1329 27.6115 41.8557 24.106 41.8557C20.6004 41.8557 13.0624 42.1226 9.901 40.9319C7.79337 40.1313 6.16964 38.5814 5.32014 36.5593C4.06202 33.5313 4.35235 26.3462 4.35235 23C4.35235 19.6538 4.07277 12.4584 5.32014 9.4407C6.15889 7.42887 7.78262 5.87895 9.901 5.06806C13.0732 3.86712 20.6004 4.14426 24.106 4.14426C27.6115 4.14426 35.1495 3.87738 38.3109 5.06806C40.4185 5.86868 42.0423 7.41861 42.8918 9.4407C44.1499 12.4687 43.8596 19.6538 43.8596 23C43.8596 26.3462 44.1499 33.5416 42.8918 36.5593Z" fill="white"/>
</svg>
