<svg width="1117" height="974" viewBox="0 0 1117 974" fill="none" xmlns="http://www.w3.org/2000/svg">
<path d="M513.299 829.21C513.299 829.21 258.644 834.884 269.304 847.321C279.964 859.758 67.324 866.261 17.89 885.366C-31.544 904.471 266.936 938.819 295.362 943.557C323.789 948.295 288.255 966.061 336.818 971.984C385.38 977.906 720.578 968.431 745.451 957.771C770.324 947.111 732.422 935.267 754.927 934.082C777.432 932.897 978.787 925.179 1014.32 911.272C1049.85 897.365 893.371 884.04 876.857 882.411C860.343 880.782 900.153 869.712 912.228 864.587C924.301 859.462 513.299 829.21 513.299 829.21Z" fill="#EDEDED"/>
<path d="M171.143 474.154C171.143 474.154 59.625 437.799 17.889 389.83C-23.847 341.861 14.336 281.453 61.87 270.793C109.404 260.133 56.104 108.682 141.384 79.584C226.664 50.486 257.756 126.191 307.058 146.08C356.36 165.969 372.943 38.48 451.708 34.712C530.473 30.943 560.677 239.85 589.103 254.433C617.529 269.016 171.143 474.154 171.143 474.154Z" fill="#F9F2F4"/>
<path d="M699.55 227.91C699.55 227.91 790.793 131.704 884.493 114.192C978.193 96.68 980.959 210.053 1019.55 222.656C1058.14 235.259 1111.44 287.681 1088.35 373.4C1065.25 459.119 851.485 437.731 851.485 437.731L699.55 227.91Z" fill="#F9F2F4"/>
<path d="M309.66 114.293C328.829 114.293 344.368 98.7537 344.368 79.585C344.368 60.4163 328.829 44.877 309.66 44.877C290.491 44.877 274.952 60.4163 274.952 79.585C274.952 98.7537 290.491 114.293 309.66 114.293Z" fill="#F9F2F4"/>
<path d="M25.255 244.622C37.3865 244.622 47.221 234.787 47.221 222.656C47.221 210.525 37.3865 200.69 25.255 200.69C13.1235 200.69 3.289 210.525 3.289 222.656C3.289 234.787 13.1235 244.622 25.255 244.622Z" fill="#F9F2F4"/>
<path d="M655.729 126.801C679.931 126.801 699.55 107.182 699.55 82.98C699.55 58.7783 679.931 39.159 655.729 39.159C631.527 39.159 611.908 58.7783 611.908 82.98C611.908 107.182 631.527 126.801 655.729 126.801Z" fill="#F9F2F4"/>
<path d="M1045.71 533.739C1057.57 533.739 1067.19 524.122 1067.19 512.259C1067.19 500.396 1057.57 490.779 1045.71 490.779C1033.84 490.779 1024.23 500.396 1024.23 512.259C1024.23 524.122 1033.84 533.739 1045.71 533.739Z" fill="#F9F2F4"/>
<rect x="247.54" y="859.758" width="168.783" height="7.107" fill="#8686E0"/>
<path d="M699.55 854.73H430.394L486.057 688.31H643.594L699.55 854.73Z" fill="#CC5269"/>
<path d="M492.577 723.256C486.057 745.748 440.45 847.018 499.382 854.729H430.394L486.057 688.309H518.037C518.037 688.31 499.08 700.746 492.577 723.256Z" fill="#C44563"/>
<path d="M637.367 723.256C643.887 745.748 689.494 847.018 630.562 854.729H699.55L643.887 688.309H611.907C611.907 688.31 630.864 700.746 637.367 723.256Z" fill="#C44563"/>
<path d="M992.406 248.425V659.154C992.406 679.177 976.167 695.416 956.144 695.416H177.646C157.623 695.416 141.384 679.177 141.384 659.154V248.425C141.384 228.402 157.623 212.163 177.646 212.163H956.145C976.168 212.163 992.406 228.402 992.406 248.425Z" fill="#E28693"/>
<path d="M992.406 610.722V659.154C992.406 679.177 976.167 695.416 956.144 695.416H177.646C157.623 695.416 141.384 679.177 141.384 659.154V610.722H992.406Z" fill="#CC5269"/>
<path d="M992.406 610.722V652.047C992.406 672.07 976.167 688.309 956.144 688.309H177.646C157.623 688.309 141.384 672.07 141.384 652.047V610.722H992.406Z" fill="#D8606E"/>
<path d="M419.753 854.724H711.078C715.67 854.724 719.393 858.569 719.393 863.311C719.393 868.054 715.67 871.898 711.078 871.898H419.753C415.161 871.898 411.438 868.053 411.438 863.311C411.437 858.568 415.16 854.724 419.753 854.724Z" fill="#E28693"/>
<rect x="167.442" y="243.551" width="798.315" height="367.171" fill="#EDCCD4"/>
<path d="M888.774 320.558V610.723H240.877V320.558C240.877 306.167 252.55 294.476 266.958 294.476H862.691C877.083 294.476 888.774 306.167 888.774 320.558Z" fill="#F2DDE3"/>
<path d="M888.774 320.558V333.563H240.877V320.558C240.877 306.167 252.55 294.476 266.958 294.476H862.691C877.083 294.476 888.774 306.167 888.774 320.558Z" fill="#E28693"/>
<path d="M278.631 322.902C283.537 322.902 287.514 318.925 287.514 314.019C287.514 309.113 283.537 305.136 278.631 305.136C273.725 305.136 269.748 309.113 269.748 314.019C269.748 318.925 273.725 322.902 278.631 322.902Z" fill="#ADADEA"/>
<path d="M315.941 322.902C320.847 322.902 324.824 318.925 324.824 314.019C324.824 309.113 320.847 305.136 315.941 305.136C311.035 305.136 307.058 309.113 307.058 314.019C307.058 318.925 311.035 322.902 315.941 322.902Z" fill="#ADADEA"/>
<path d="M353.251 322.902C358.157 322.902 362.134 318.925 362.134 314.019C362.134 309.113 358.157 305.136 353.251 305.136C348.345 305.136 344.368 309.113 344.368 314.019C344.368 318.925 348.345 322.902 353.251 322.902Z" fill="#ADADEA"/>
<path d="M439.78 443.13H307.29C300.702 443.13 295.362 437.79 295.362 431.202V385.768C295.362 379.18 300.702 373.84 307.29 373.84H439.78C446.368 373.84 451.708 379.18 451.708 385.768V431.202C451.708 437.789 446.368 443.13 439.78 443.13Z" fill="#EDCCD4"/>
<path d="M439.78 533.74H307.29C300.702 533.74 295.362 528.4 295.362 521.812V476.378C295.362 469.79 300.702 464.45 307.29 464.45H439.78C446.368 464.45 451.708 469.79 451.708 476.378V521.812C451.708 528.399 446.368 533.74 439.78 533.74Z" fill="#ADADEA"/>
<path d="M439.083 581.71H307.987C301.014 581.71 295.361 576.057 295.361 569.084V566.196C295.361 559.223 301.014 553.57 307.987 553.57H439.082C446.055 553.57 451.708 559.223 451.708 566.196V569.084C451.708 576.057 446.056 581.71 439.083 581.71Z" fill="#8686E0"/>
<path d="M633.98 581.71H499.81C493.686 581.71 488.722 576.746 488.722 570.622V564.659C488.722 558.535 493.686 553.571 499.81 553.571H633.98C640.104 553.571 645.068 558.535 645.068 564.659V570.622C645.069 576.745 640.104 581.71 633.98 581.71Z" fill="#D8606E"/>
<path d="M831.497 581.71H696.713C690.758 581.71 685.931 576.883 685.931 570.928V564.351C685.931 558.396 690.758 553.569 696.713 553.569H831.496C837.451 553.569 842.278 558.396 842.278 564.351V570.928C842.278 576.883 837.451 581.71 831.497 581.71Z" fill="#E28693"/>
<path d="M829.61 499.983H698.6C691.603 499.983 685.931 494.311 685.931 487.315V460.995C685.931 453.998 691.603 448.327 698.6 448.327H829.61C836.607 448.327 842.278 453.999 842.278 460.995V487.315C842.278 494.311 836.606 499.983 829.61 499.983Z" fill="#EDCCD4"/>
<path d="M832.887 362.155H608.234C603.047 362.155 598.843 357.95 598.843 352.764C598.843 347.577 603.048 343.373 608.234 343.373H832.887C838.074 343.373 842.278 347.578 842.278 352.764C842.278 357.951 838.074 362.155 832.887 362.155Z" fill="#EDCCD4"/>
<path d="M620.195 396.048H490.499C489.027 396.048 487.834 394.855 487.834 393.383C487.834 391.911 489.027 390.718 490.499 390.718H620.196C621.668 390.718 622.861 391.911 622.861 393.383C622.86 394.855 621.667 396.048 620.195 396.048Z" fill="#8686E0"/>
<path d="M620.195 412.038H490.499C489.027 412.038 487.834 410.845 487.834 409.373C487.834 407.901 489.027 406.708 490.499 406.708H620.196C621.668 406.708 622.861 407.901 622.861 409.373C622.86 410.845 621.667 412.038 620.195 412.038Z" fill="#8686E0"/>
<path d="M620.195 426.251H490.499C489.027 426.251 487.834 425.058 487.834 423.586C487.834 422.114 489.027 420.921 490.499 420.921H620.196C621.668 420.921 622.861 422.114 622.861 423.586C622.86 425.058 621.667 426.251 620.195 426.251Z" fill="#8686E0"/>
<path d="M620.195 479.551H490.499C489.027 479.551 487.834 478.358 487.834 476.886C487.834 475.414 489.027 474.221 490.499 474.221H620.196C621.668 474.221 622.861 475.414 622.861 476.886C622.86 478.358 621.667 479.551 620.195 479.551Z" fill="#E28693"/>
<path d="M620.195 493.765H490.499C489.027 493.765 487.834 492.572 487.834 491.1C487.834 489.628 489.027 488.435 490.499 488.435H620.196C621.668 488.435 622.861 489.628 622.861 491.1C622.86 492.572 621.667 493.765 620.195 493.765Z" fill="#E28693"/>
<path fill-rule="evenodd" clip-rule="evenodd" d="M490.499 532.851H506.489C507.961 532.851 509.154 531.658 509.154 530.186C509.154 528.714 507.961 527.521 506.489 527.521H490.499C489.027 527.521 487.834 528.714 487.834 530.186C487.834 531.658 489.027 532.851 490.499 532.851ZM549.129 532.851H533.139C531.667 532.851 530.474 531.658 530.474 530.186C530.474 528.714 531.667 527.521 533.139 527.521H549.129C550.601 527.521 551.794 528.714 551.794 530.186C551.794 531.658 550.601 532.851 549.129 532.851ZM575.779 532.851H591.769C593.24 532.851 594.434 531.658 594.434 530.186C594.434 528.714 593.241 527.521 591.769 527.521H575.779C574.307 527.521 573.114 528.714 573.114 530.186C573.114 531.658 574.307 532.851 575.779 532.851ZM634.409 532.851H618.419C616.947 532.851 615.754 531.658 615.754 530.186C615.754 528.714 616.947 527.521 618.419 527.521H634.409C635.881 527.521 637.074 528.714 637.074 530.186C637.074 531.658 635.88 532.851 634.409 532.851ZM661.059 532.851H677.049C678.52 532.851 679.714 531.658 679.714 530.186C679.714 528.714 678.521 527.521 677.049 527.521H661.059C659.587 527.521 658.394 528.714 658.394 530.186C658.394 531.658 659.587 532.851 661.059 532.851ZM719.688 532.851H703.698C702.226 532.851 701.033 531.658 701.033 530.186C701.033 528.714 702.226 527.521 703.698 527.521H719.688C721.16 527.521 722.353 528.714 722.353 530.186C722.353 531.658 721.16 532.851 719.688 532.851ZM746.338 532.851H762.328C763.8 532.851 764.993 531.658 764.993 530.186C764.993 528.714 763.8 527.521 762.328 527.521H746.338C744.866 527.521 743.673 528.714 743.673 530.186C743.673 531.658 744.866 532.851 746.338 532.851ZM804.968 532.851H788.978C787.506 532.851 786.313 531.658 786.313 530.186C786.313 528.714 787.506 527.521 788.978 527.521H804.968C806.44 527.521 807.633 528.714 807.633 530.186C807.633 531.658 806.44 532.851 804.968 532.851ZM847.608 532.851H831.618C830.146 532.851 828.953 531.658 828.953 530.186C828.953 528.714 830.146 527.521 831.618 527.521H847.608C849.08 527.521 850.273 528.714 850.273 530.186C850.273 531.658 849.08 532.851 847.608 532.851Z" fill="#ADADEA"/>
<path d="M779.348 424.105V437.144C779.348 439.395 781.172 441.219 783.423 441.219C785.674 441.219 787.498 439.395 787.498 437.144V424.105C787.498 421.854 785.674 420.03 783.423 420.03C781.172 420.03 779.348 421.855 779.348 424.105Z" fill="#D3394F"/>
<path d="M943.171 424.105V437.144C943.171 439.395 944.995 441.219 947.246 441.219C949.497 441.219 951.321 439.395 951.321 437.144V424.105C951.321 421.854 949.497 420.03 947.246 420.03C944.996 420.03 943.171 421.855 943.171 424.105Z" fill="#D3394F"/>
<rect x="778.318" y="212.163" width="8.883" height="181.22" fill="#D3394F"/>
<rect x="941.772" y="212.163" width="8.883" height="181.22" fill="#D3394F"/>
<rect x="742.785" y="393.286" width="245.18" height="28.524" fill="#361CB7"/>
<path d="M786.026 425.36H780.678C775.286 425.36 770.915 420.989 770.915 415.597V397.815C770.915 392.423 775.286 388.052 780.678 388.052H786.026C791.418 388.052 795.789 392.423 795.789 397.815V415.597C795.789 420.989 791.418 425.36 786.026 425.36Z" fill="#6565D1"/>
<path d="M949.48 425.36H944.132C938.74 425.36 934.369 420.989 934.369 415.597V397.815C934.369 392.423 938.74 388.052 944.132 388.052H949.48C954.872 388.052 959.243 392.423 959.243 397.815V415.597C959.242 420.989 954.871 425.36 949.48 425.36Z" fill="#6565D1"/>
<path d="M831.237 373.401C831.237 373.401 823.02 387.87 819.911 389.586C816.802 391.303 817.468 394.491 825.574 394C833.68 393.51 851.003 393.019 851.447 392.038C851.891 391.057 848.338 373.4 848.338 373.4H831.237V373.401Z" fill="#1F159E"/>
<path d="M890.089 375.362C890.089 375.362 891.644 385.662 896.529 388.359C901.414 391.056 899.194 394.05 899.194 394.05L870.323 392.528C870.323 392.528 872.544 377.324 876.985 369.722C881.428 362.12 890.089 375.362 890.089 375.362Z" fill="#1F159E"/>
<path d="M828.542 377.956C828.542 377.956 833.903 376.657 838.122 380.179C842.342 383.701 852.557 382.72 852.557 382.72C852.557 382.72 847.671 287.571 848.56 279.968C849.448 272.366 857.443 239.75 857.665 237.543C857.887 235.336 860.511 234.885 861.218 230.186C861.925 225.487 862.336 208.348 862.336 208.348L814.653 205.035C814.653 205.035 819.467 269.913 820.356 282.42C821.243 294.927 828.542 377.956 828.542 377.956Z" fill="#361CB7"/>
<path d="M890.835 378.743C890.835 378.743 883.426 373.644 880.548 375.367C880.033 375.669 879.375 375.989 878.647 376.291C875.289 377.712 870.332 379.045 870.332 379.045C870.332 379.045 872.322 296.146 872.322 291.242C872.322 286.338 857.664 237.533 857.664 237.533L856.918 225.008L855.443 200.348L893.499 205.038C893.499 205.038 896.608 276.211 896.75 286.996C896.893 297.781 890.835 378.743 890.835 378.743Z" fill="#1F159E"/>
<path d="M870.332 379.045C870.332 379.045 872.322 296.146 872.322 291.242C872.322 286.338 857.664 237.533 857.664 237.533L856.918 225.008L861.644 222.645L863.829 227.904C863.829 227.904 870.03 266.049 874.649 274.932C879.286 283.815 874.649 372.062 874.649 372.062C874.649 372.062 874.152 375.473 878.646 376.29C875.289 377.713 870.332 379.045 870.332 379.045Z" fill="#100E87"/>
<path d="M896.752 203.456C896.752 203.456 847.005 230.196 809.926 201.749L808.363 81.665C808.363 81.665 812.36 78.055 817.246 77.565C818.241 77.467 821.421 77.389 825.898 77.349C835.67 77.251 851.571 77.329 864.345 77.781C874.49 78.134 882.662 78.703 884.173 79.606C888.455 82.155 896.752 203.456 896.752 203.456Z" fill="#E28693"/>
<path d="M896.751 203.458C896.751 203.458 877.989 213.549 854.928 214.74C846.4 215.184 837.25 214.42 828.26 211.453L828.242 211.435C821.988 209.374 815.805 206.247 809.925 201.752L808.752 111.675L808.361 81.667C808.361 81.667 812.358 78.06 817.244 77.563C818.239 77.474 821.419 77.385 825.896 77.35L843.449 86.233C843.449 86.233 847.944 89.236 853.31 87.033C855.726 86.056 860.186 81.952 864.343 77.777C874.488 78.132 882.66 78.701 884.171 79.607C885.166 80.193 886.374 87.158 887.636 97.533C891.847 131.876 896.751 203.458 896.751 203.458Z" fill="#D8606E"/>
<path d="M896.751 203.458C896.751 203.458 877.989 213.549 854.928 214.74C853.667 213.39 852.601 212.004 852.565 211.169C852.476 209.144 865.233 205.039 865.233 205.039L863.599 203.866C863.599 203.866 863.297 199.584 867.739 200.348C872.181 201.112 881.224 187.147 885.95 178.548C890.694 169.967 887.585 137.241 887.585 137.241C881.367 126.581 881.491 96.395 881.491 96.395C881.491 96.395 884.067 96.893 887.638 97.532C891.847 131.876 896.751 203.458 896.751 203.458Z" fill="#C14D5E"/>
<path d="M828.243 211.435C821.989 209.374 815.806 206.247 809.926 201.752L808.753 111.675C811.027 103.84 812.52 98.705 812.52 98.705C812.52 98.705 817.015 119.101 814.652 128.446C812.288 137.757 817.974 207.366 828.243 211.435Z" fill="#C14D5E"/>
<path d="M811.471 127.63C811.471 127.63 808.628 133.582 804.915 141.133C803.76 143.46 802.534 145.948 801.273 148.471L784.857 127.631C785.106 127.631 786.563 124.788 788.659 120.507C794.86 107.751 806.603 82.255 808.362 81.651C810.725 80.832 815.913 111.426 811.471 127.63Z" fill="#FCDFD0"/>
<path d="M1027 371.512L1016.78 380.733C1015.27 382.101 1013.03 381.852 1011.79 380.182C1010.55 378.494 1010.78 376.025 1012.29 374.656L1022.5 365.435C1024.28 363.854 1024.62 361.029 1023.3 358.968L1020.92 355.237C1020.73 354.917 1020.37 354.793 1020.05 354.899L980.929 368.579C977.926 369.645 974.657 368.615 972.596 366.003L801.273 148.47L784.857 127.63L784.733 127.47L748.844 81.934L739.605 70.19C738.326 68.555 738.486 66.086 739.96 64.647C740.635 64.007 741.452 63.688 742.287 63.688C743.282 63.688 744.277 64.15 744.97 65.038L753.658 76.053L769.47 96.147L788.658 120.505L804.914 141.132L977.961 360.852C978.156 361.118 978.494 361.207 978.796 361.101L1017.9 347.421C1021.2 346.266 1024.76 347.599 1026.75 350.726L1029.13 354.457C1032.58 359.875 1031.65 367.319 1027 371.512Z" fill="#361CB7"/>
<path d="M962.932 403.073L1008.53 365.798C1008.53 365.798 1019.19 372.011 1022.45 386.07L977.145 424.326C977.146 424.327 964.117 421.057 962.932 403.073Z" fill="#D3394F"/>
<path d="M839.232 58.893L837.788 77.531C837.788 77.531 840.62 82.981 847.948 82.981C855.276 82.981 858.108 78.634 858.108 78.634L856.331 58.893H839.232V58.893Z" fill="#FCDFD0"/>
<path d="M840.301 61.697C840.301 61.697 841.828 68.587 846.551 68.92C851.274 69.253 855.622 60.863 855.622 60.863L850.274 54.263L840.301 61.697Z" fill="#E8BAA6"/>
<path d="M874.099 203.211C874.099 203.211 860.774 200.513 861.44 202.475C862.106 204.437 864.549 206.889 865.326 207.257C866.103 207.625 866.659 205.786 866.659 205.786C866.659 205.786 860.232 209.638 859.226 210.103C858.22 210.568 847.338 211.549 847.338 212.53C847.338 213.511 854.445 225.772 856.777 227.244C859.109 228.715 869.299 227.301 870.99 227.244C872.681 227.187 881.65 215.318 882.649 214.844C883.648 214.37 920.736 176.236 921.625 171.332C922.513 166.427 897.862 94.575 895.197 89.67C892.532 84.765 888.683 79.125 884.167 79.616C879.651 80.107 881.118 105.12 884.493 114.193C887.868 123.266 899.861 157.354 898.75 159.561C897.64 161.767 874.099 203.211 874.099 203.211Z" fill="#FCDFD0"/>
<path d="M825.833 77.317C825.833 77.317 825.241 67.598 826.721 65.963C828.202 64.328 842.267 64.982 843.451 67.107C844.635 69.232 844.784 85.745 843.451 86.235C842.119 86.726 825.833 77.317 825.833 77.317Z" fill="#D8606E"/>
<path d="M870.929 78.117C870.929 78.117 871.521 68.398 870.041 66.763C868.56 65.128 854.495 65.782 853.311 67.907C852.127 70.032 851.979 86.545 853.311 87.035C854.643 87.526 870.929 78.117 870.929 78.117Z" fill="#D8606E"/>
<path d="M784.857 127.63L784.733 127.47C783.223 125.267 768.69 102.099 768.69 102.099C768.69 102.099 769.081 99.239 769.472 96.147C769.827 93.269 770.165 90.195 770.165 89.023C770.165 86.571 767.944 70.048 767.198 68.751C766.47 67.436 763.201 60.898 760.98 60.863C758.759 60.81 755.508 69.071 754.762 71.523C754.513 72.411 754.087 74.17 753.66 76.054C752.878 79.394 752.097 83.125 752.097 83.125C752.097 83.125 751.209 75.45 749.29 79.696C749.024 80.282 748.881 81.046 748.846 81.935C748.597 87.336 752.097 97.019 752.097 97.019C752.097 97.019 772.973 155.72 776.97 164.053C780.967 172.403 784.965 173.221 788.074 171.746C789.655 171 795.714 159.523 801.275 148.472L784.857 127.63Z" fill="#FCDFD0"/>
<path d="M831.163 28.034C831.163 28.034 830.262 47.479 833.519 53.364C836.776 59.249 842.859 64.982 847.005 64.982C851.151 64.982 858.447 59.777 860.76 54.35C863.129 48.791 861.515 25.581 861.515 25.581L852.336 12.012H831.05L831.163 28.034Z" fill="#FCDFD0"/>
<path d="M833.727 22.725C833.727 22.725 840.295 31.942 850.781 29.833C861.267 27.724 849.497 15.287 849.497 15.287L832.852 14.177L833.727 22.725Z" fill="#E8BAA6"/>
<path d="M835.568 20.514C835.568 20.514 840.906 30.585 850.781 29.833C858.832 29.22 859.886 27.871 859.886 27.871L862.052 37.026L865.494 36.051C865.494 36.051 868.103 19.084 866.437 12.013C864.771 4.94201 854.667 -1.06599 840.897 0.160007C827.128 1.38601 828.262 8.74301 828.262 8.74301C828.262 8.74301 825.573 9.23301 824.685 10.705C823.797 12.176 829.127 37.026 829.127 37.026L831.049 36.127L832.126 23.825C832.125 23.825 834.235 22.844 835.568 20.514Z" fill="#090B33"/>
<path d="M831.049 36.127C831.049 36.127 829.905 34.492 828.794 34.737C827.684 34.982 828.191 44.019 831.491 44.487C834.79 44.955 831.049 36.127 831.049 36.127Z" fill="#FCDFD0"/>
<path d="M862.051 37.026C862.051 37.026 862.921 34.655 864.993 35.473C867.066 36.29 863.846 45.364 862.051 45.2C860.256 45.036 862.051 37.026 862.051 37.026Z" fill="#FCDFD0"/>
<path d="M829.12 36.163C829.12 36.163 830.341 37.495 830.119 39.161C830.119 39.161 829.773 37.145 829.12 36.163Z" fill="#E8BAA6"/>
<path d="M864.857 37.026C864.97 36.943 863.006 37.828 862.858 39.938C862.858 39.938 863.635 37.927 864.857 37.026Z" fill="#E8BAA6"/>
<path d="M828.243 66.81C828.243 66.81 836.505 68.92 841.723 69.586C841.723 69.586 833.528 66.477 828.243 66.81Z" fill="#C14D5E"/>
<path d="M856.047 69.586L869.483 68.185C869.483 68.186 863.265 67.143 856.047 69.586Z" fill="#C14D5E"/>
<path d="M966.442 766.081C966.442 766.081 963.924 748.814 965.062 747.321C965.062 747.321 1004.57 777.607 1004.18 779.03C1003.78 780.453 985.854 779.957 981.968 779.66C978.082 779.363 971.197 783.804 971.197 783.804L966.442 766.081Z" fill="#FCDFD0"/>
<path d="M807.633 881.744C807.633 881.744 801.637 895.957 796.529 900.177C791.421 904.397 790.533 909.282 790.533 909.282C790.533 909.282 798.132 913.757 821.403 909.282C827.177 908.172 823.624 904.618 827.843 903.73C832.063 902.842 832.729 901.287 832.729 901.287L823.846 878.412L807.633 881.744Z" fill="#D8606E"/>
<path d="M954.208 881.744C954.208 881.744 960.204 895.957 965.312 900.177C970.42 904.397 971.308 909.282 971.308 909.282C971.308 909.282 963.709 913.757 940.438 909.282C934.664 908.172 938.217 904.618 933.998 903.73C929.778 902.842 929.112 901.287 929.112 901.287L937.995 878.412L954.208 881.744Z" fill="#D8606E"/>
<path d="M959.325 880.402C945.538 889.072 929.548 881.752 929.548 881.752C929.548 881.752 930.667 834.439 929.548 832.663C928.446 830.886 905.794 842.879 893.802 846.219C881.81 849.541 873.815 843.554 873.815 843.554C845.833 850.874 822.292 828.452 821.634 829.216C820.959 829.98 830.517 882.178 830.517 882.178C820.514 892.181 803.636 884.63 803.636 884.63C803.636 884.63 776.755 801.802 773.877 791.053C770.999 780.322 776.098 770.035 785.212 771.137C794.309 772.256 836.362 798.16 836.362 798.16L902.01 793.434L906.239 793.132L904.853 801.127L904.462 803.348C904.462 803.348 962.879 789.135 964.762 791.053C966.663 792.991 959.325 880.402 959.325 880.402Z" fill="#361CB7"/>
<path d="M904.852 801.128C904.852 801.128 887.583 807.933 874.471 808.235C861.377 808.537 836.362 798.161 836.362 798.161L902.01 793.435C902.987 795.62 904.852 801.128 904.852 801.128Z" fill="#1F159E"/>
<path d="M880.256 799.981C880.256 799.981 880.702 811.566 880.256 812.454C879.81 813.342 874.48 816.229 874.48 816.229V799.98L877.467 798.018L880.256 799.981Z" fill="#1F159E"/>
<path d="M930.223 813.351L929.548 832.663C928.446 830.886 905.794 842.879 893.802 846.219C881.81 849.541 873.815 843.554 873.815 843.554C845.833 850.874 822.292 828.452 821.634 829.216C821.634 829.216 816.961 810.685 816.073 807.132C815.185 803.579 830.535 829.554 837.162 835.559C843.807 841.546 866.939 842.435 870.492 840.214C874.045 837.993 875.36 840.658 878.913 841.316C882.466 841.991 884.918 845.1 900.464 839.539C916.01 833.996 930.223 816.443 930.223 813.351Z" fill="#1F159E"/>
<path d="M806.301 599.032C806.301 599.032 803.651 581.068 805.198 579.686C806.745 578.304 831.322 605.398 831.322 605.398V616.579C831.322 616.579 826.436 614.133 824.956 614.725C823.475 615.317 818.018 618.574 818.018 618.574L804.713 604.361L806.301 599.032Z" fill="#FCDFD0"/>
<path d="M1116.93 854.552L1111.9 859.58L1106.91 864.59C1024.3 799.013 964.655 748.005 921.606 708.581C908.761 696.837 897.408 686.106 887.352 676.335C811.133 602.23 809.854 582.598 809.854 582.598L822.806 569.646L836.486 555.948C915.584 586.542 1116.93 854.552 1116.93 854.552Z" fill="#D3394F"/>
<path d="M1111.9 859.58L1106.91 864.59C1024.3 799.013 964.655 748.005 921.606 708.581C908.761 696.837 897.408 686.106 887.352 676.335C811.133 602.23 809.854 582.598 809.854 582.598L822.806 569.646V571.76C822.806 571.76 818.293 583.486 826.59 594.732C834.869 605.996 1101.37 854.729 1106.7 857.092C1108.21 857.75 1110.04 858.638 1111.9 859.58Z" fill="#BF2B47"/>
<path d="M776.246 497.91C776.246 497.91 821.255 507.367 826.585 553.57L804.235 568.925C804.234 568.925 757.977 564.346 776.246 497.91Z" fill="#6565D1"/>
<path d="M812.576 589.601C812.576 589.601 818.904 565.076 844.212 559.476L828.394 548.249C828.394 548.249 809.41 555.06 801.415 574.603L812.576 589.601Z" fill="#361CB7"/>
<path d="M893.78 703.652L888.288 715.404L905.054 725.027L910.384 712.873L905.054 706.52L893.78 703.652Z" fill="#FCDFD0"/>
<path d="M843.024 728.284C843.024 728.284 793.562 688.309 786.455 682.233C779.348 676.175 777.429 672.621 778.318 662.85C779.206 653.078 799.638 606.885 799.638 606.885C803.209 607.969 806.94 611.398 809.96 614.862C813.62 619.002 816.214 623.159 816.214 623.159C816.214 623.159 803.191 661.357 803.635 663.578C804.079 665.799 853.968 695.416 856.935 699.555C859.903 703.713 843.024 728.284 843.024 728.284Z" fill="#EDCCD4"/>
<path d="M921.695 754.774C916.507 773.394 908.015 801.127 908.015 801.127L868.324 799.475L836.362 798.16C836.362 798.16 826.288 786.327 828.367 767.068C830.428 747.827 851.712 695.415 851.712 695.415C860.844 697.494 924.893 735.39 925.604 738.357C925.835 739.3 924.129 746.033 921.695 754.774Z" fill="#D8606E"/>
<path d="M894.204 704.541C894.204 704.541 893.746 713.072 897.577 715.626C901.408 718.18 910.384 712.873 910.384 712.873C910.384 712.873 909.292 707.853 908.903 707.687C908.514 707.521 894.204 704.541 894.204 704.541Z" fill="#E8BAA6"/>
<path d="M921.695 754.774C916.507 773.394 908.015 801.127 908.015 801.127L868.324 799.475C869.461 799.12 895.294 790.84 902.294 787.802C909.436 784.693 921.109 748.271 921.109 748.271L921.695 754.774Z" fill="#C14D5E"/>
<path d="M803.636 663.578L799.639 669.814L810.761 626.428C807.403 623.479 805.911 615.448 805.911 615.448L809.962 614.862C813.622 619.002 816.216 623.159 816.216 623.159C816.216 623.159 803.192 661.357 803.636 663.578Z" fill="#E2B5C2"/>
<path d="M938.005 666.99C938.325 667.665 943.211 676.584 941.878 679.054C940.545 681.541 932.444 694.529 932.55 695.524C932.674 696.519 932.23 703.004 928.339 703.661C926.065 704.034 923.418 706.557 921.605 708.582C908.76 696.838 897.407 686.107 887.351 676.336C887.351 676.336 888.026 674.719 890.247 675.199C890.247 675.199 891.864 651.836 894.191 651.445C896.501 651.054 899.201 651.783 899.343 651.889C899.467 651.996 914.676 641.336 916.008 642.117C917.341 642.899 918.904 644.995 918.904 644.995L920.077 649.508C920.077 649.508 923.826 646.559 926.526 647.234C929.227 647.891 944.222 660.435 944.222 660.435C944.222 660.435 943.76 664.432 943.334 664.432C942.873 664.431 937.667 666.314 938.005 666.99Z" fill="#BF2B47"/>
<path d="M799.638 606.879C799.638 606.879 803.784 597.996 806.301 599.032C808.818 600.068 821.076 614.148 821.832 616.361C822.588 618.574 816.221 623.165 816.221 623.165C816.221 623.165 807.189 619.908 799.638 606.879Z" fill="#D3394F"/>
<path d="M967.231 791.054C967.231 791.054 926.972 821.257 923.116 820.973C919.261 820.671 913.931 815.643 912.758 811.788C911.568 807.933 912.758 785.458 912.758 785.458C912.758 785.458 921.286 739.247 925.603 738.359C925.603 738.359 927.557 741.308 928.144 748.273C928.393 751.222 928.979 758.578 929.565 766.075V766.128C930.347 776.255 931.146 786.613 931.146 786.613L958.347 771.227L967.231 791.054Z" fill="#EDCCD4"/>
<path d="M958.354 771.221C958.354 771.221 958.206 782.473 967.237 791.06L975.38 785.582C975.38 785.582 968.811 776.297 966.442 766.081L958.354 771.221Z" fill="#D3394F"/>
<path d="M880.477 711.554C880.477 711.554 884.465 703.745 888.289 705.484C892.112 707.222 910.693 718.579 911.104 719.697C911.865 721.77 908.608 729.617 908.164 729.469C907.719 729.321 891.433 725.619 880.477 711.554Z" fill="#EDCCD4"/>
<path d="M894.394 674.836C894.394 674.836 891.877 694.972 892.765 700.302C893.653 705.632 897.503 709.333 900.464 711.11C903.425 712.887 910.384 713.479 914.233 712.146C918.082 710.813 929.631 690.086 929.631 690.086L928.891 672.319L912.753 655.589C912.753 655.589 897.207 663.88 894.394 674.836Z" fill="#FCDFD0"/>
<path d="M898.687 670.839C898.687 670.839 907.136 670.244 909.199 668.988C909.199 668.988 912.9 683.053 926.522 681.203L920.074 661.808L906.904 658.255L898.687 670.839Z" fill="#E8BAA6"/>
<path d="M911.716 665.065C911.716 665.065 909.199 672.66 915.713 677.153C922.227 681.647 926.521 681.203 926.521 681.203L927.483 693.831L931.136 694.677C931.136 694.677 939.699 679.427 941.327 674.097C942.956 668.767 941.327 666.99 941.327 666.99C941.327 666.99 946.657 665.954 945.473 664.473C944.289 662.992 929.436 649.217 925.61 649.516C921.784 649.815 920.074 651.148 920.074 651.148C920.074 651.148 923.857 640.784 921.488 641.524C919.119 642.264 910.68 648.483 909.496 650.259C909.496 650.259 899.576 646.404 897.207 649.516C894.838 652.628 892.156 678.538 892.156 678.538L893.915 678.962L898.688 670.839C898.687 670.839 907.571 669.21 911.716 665.065Z" fill="#090B33"/>
<path d="M893.915 678.962C893.915 678.962 891.989 675.471 889.268 678.189C886.547 680.907 890.057 689.502 892.966 688.906C895.875 688.31 896.023 683.044 896.023 683.044L893.915 678.962Z" fill="#FCDFD0"/>
<path d="M927.483 693.83C927.483 693.83 929.335 692.244 930.815 693.83C932.296 695.416 928.644 702.582 922.993 701.22C917.342 699.858 921.636 694.38 921.636 694.38L927.483 693.83Z" fill="#FCDFD0"/>
<path d="M890.248 679.056C890.248 679.056 892.212 678.982 892.155 681.795C892.098 684.608 891.202 684.231 891.202 684.231C891.202 684.231 892.691 680.611 890.248 679.056Z" fill="#E8BAA6"/>
<path d="M930.149 695.268C930.149 695.268 927.262 695.177 926.522 697.258C926.522 697.258 929.165 695.497 930.149 695.268Z" fill="#E8BAA6"/>
<path d="M931.147 786.612L923.721 790.005C924.041 789.685 929.193 784.213 929.566 766.127C930.348 776.254 931.147 786.612 931.147 786.612Z" fill="#E2B5C2"/>
<path d="M319.051 875.748C319.051 875.748 318.731 875.819 318.092 875.979C314.468 876.778 300.539 879.568 277.282 881.202H277.264C267.119 881.913 255.18 882.41 241.553 882.41C203.763 882.41 171.002 876.973 165.014 875.925C164.374 875.818 164.037 875.747 164.037 875.747C164.037 875.747 178.908 813.226 240.096 812.267C240.576 812.232 241.055 812.232 241.553 812.232C303.949 812.232 319.051 875.748 319.051 875.748Z" fill="#CC5269"/>
<path d="M319.051 875.748C319.051 875.748 318.731 875.819 318.092 875.979C314.468 876.778 300.539 879.568 277.282 881.202C281.724 880.918 305.282 853.326 295.066 839.77C284.85 826.232 255.162 813.315 252.639 819.338C250.134 825.361 242.636 823.335 242.636 823.335C242.636 823.335 240.842 815.535 240.095 812.266C240.575 812.231 241.054 812.231 241.552 812.231C303.949 812.232 319.051 875.748 319.051 875.748Z" fill="#C44563"/>
<path d="M319.051 879.301C319.051 879.301 291.815 885.963 241.553 885.963C199.713 885.963 164.037 879.301 164.037 879.301C164.037 879.301 164.339 878.057 165.014 875.925C171.001 876.973 203.763 882.41 241.553 882.41C286.378 882.41 312.886 877.116 318.092 875.978C318.766 878.075 319.051 879.301 319.051 879.301Z" fill="#C44563"/>
<path d="M240.446 823.336H242.642C245.859 823.336 248.741 821.349 249.886 818.343L251.086 815.193C253.019 810.119 249.271 804.681 243.842 804.681H239.246C233.816 804.681 230.069 810.119 232.002 815.193L233.202 818.343C234.346 821.349 237.229 823.336 240.446 823.336Z" fill="#E28693"/>
<path d="M84.864 869.751C84.864 869.751 89.861 888.295 96.856 891.182C103.852 894.069 103.296 898.067 103.296 898.067C103.296 898.067 70.095 904.063 64.209 902.953C58.324 901.843 55.992 898.289 56.769 896.846C57.546 895.402 64.542 867.642 64.542 867.642L84.864 869.751Z" fill="#1F159E"/>
<path d="M185.209 792.392C185.209 792.392 188.614 806.013 196.757 805.865C204.9 805.717 213.635 801.127 216.596 803.792C219.557 806.457 220.001 809.566 220.001 809.566C220.001 809.566 180.026 840.213 178.249 839.769C176.472 839.325 171.142 799.646 171.142 799.646L185.209 792.392Z" fill="#1F159E"/>
<path d="M25.255 550.571C25.255 550.571 20.571 551.506 16.574 563.054C12.577 574.602 1.47198 639.673 1.91598 643.449C2.35998 647.224 27.678 681.647 27.678 681.647L25.255 550.571Z" fill="#C14D5E"/>
<path d="M88.99 546.354C85.987 545.412 83.322 549.925 81.866 553.123C81.12 554.793 80.676 556.09 80.676 556.09L62.181 546.922L64.846 537.737L68.239 530.772L79.237 528.249C79.237 528.249 82.293 531.216 84.976 533.845C87.055 535.87 88.92 537.683 88.991 537.736C89.168 537.879 88.99 546.354 88.99 546.354Z" fill="#FCDFD0"/>
<path d="M88.99 546.354C85.987 545.412 83.322 549.925 81.866 553.123C79.805 552.679 78.33 552.27 78.099 552.057C77.317 551.4 76.749 547.402 79.645 545.732C82.541 544.062 81.422 534.628 81.422 534.628L84.975 533.846C87.054 535.871 88.919 537.684 88.99 537.737C89.168 537.879 88.99 546.354 88.99 546.354Z" fill="#E8BAA6"/>
<path fill-rule="evenodd" clip-rule="evenodd" d="M104.197 529.64C104.241 529.644 104.283 529.647 104.325 529.647C105.794 529.647 106.631 526.805 106.904 524.313C107.055 522.944 107.037 521.632 106.857 520.617C106.625 519.308 106.14 518.606 105.417 518.526C103.869 518.426 102.991 521.292 102.71 523.853C102.559 525.222 102.576 526.534 102.756 527.549C102.989 528.857 103.473 529.56 104.197 529.64ZM104.035 523.999C104.293 521.637 104.937 520.279 105.264 519.925C105.506 520.342 105.839 521.808 105.581 524.167C105.322 526.527 104.679 527.885 104.352 528.241C104.11 527.823 103.776 526.359 104.035 523.999Z" fill="#8686E0"/>
<path d="M102.049 522.813C102.031 523.257 101.996 523.701 101.942 524.163C101.48 529.298 100.45 535.018 98.3 538.767C93.556 547.064 90.891 548.699 90.891 548.699C90.891 548.699 80.977 536.849 81.421 534.628C81.865 532.407 75.647 521.303 75.647 521.303L84.228 503.536C84.228 503.536 101.71 506.343 102.297 512.721C102.298 512.722 102.493 517.252 102.049 522.813Z" fill="#FCDFD0"/>
<path d="M102.049 522.813C102.031 523.257 101.996 523.701 101.942 524.163L90.287 520.823L89.843 520.699C89.985 520.575 90.127 520.45 90.287 520.344C90.607 520.113 90.962 519.918 91.353 519.74L92.099 519.953L102.049 522.813Z" fill="#E8BAA6"/>
<path d="M94.835 519.082C94.835 519.082 99.577 519.463 101.353 518.106C103.13 516.75 102.585 514.584 102.607 514.307C102.63 514.029 100.797 511.982 100.464 512.256C100.131 512.53 96.022 514.418 95.856 514.64C95.691 514.863 94.835 519.082 94.835 519.082Z" fill="#E8BAA6"/>
<path d="M107.93 506.788L102.209 520.433L101.729 515.76C100.059 517.483 97.732 519.065 94.836 519.082C93.77 519.082 92.864 519.242 92.1 519.473C91.833 519.544 91.585 519.651 91.354 519.74C90.963 519.918 90.608 520.113 90.288 520.344C90.128 520.451 89.986 520.575 89.844 520.699C88.05 522.191 87.783 524.235 87.783 524.235C87.783 524.235 87.872 522.121 87.339 519.971C87.303 519.793 87.25 519.633 87.197 519.456C87.09 519.101 86.984 518.763 86.842 518.443C86.771 518.247 86.682 518.07 86.576 517.892C85.936 516.666 84.941 515.707 83.431 515.529C78.705 514.978 80.837 527.077 83.431 527.664C83.431 527.664 77.284 535.819 75.063 536.405C72.842 536.991 62.769 537.738 62.769 537.738C62.769 537.738 60.548 519.385 59.216 517.679C57.883 515.973 55.219 515.831 55.219 514.197C55.219 512.562 58.186 501.902 61.579 500.73C61.579 500.73 65.736 487.245 66.465 486.801C67.211 486.357 67.798 492.131 67.798 492.131C67.798 492.131 79.95 485.024 92.085 491.403C104.216 497.762 107.93 506.788 107.93 506.788Z" fill="#090B33"/>
<path d="M89.079 870.489C89.079 870.507 89.079 870.507 89.079 870.507C88.884 872.941 88.759 874.309 88.759 874.309C77.761 881.416 57.987 873.421 57.987 873.421C57.987 873.421 66.764 780.111 63.21 772.4C59.657 764.707 37.146 708.742 37.146 708.742C25.598 701.937 25.26 677.259 25.26 677.259L26.788 666.102L33.006 642.117L51.359 668.181L70.049 692.433L71.204 693.943C71.204 693.943 96.379 765.898 96.664 772.4C96.932 778.138 90.607 852.651 89.079 870.489Z" fill="#1F159E"/>
<path d="M91.371 774.176C92.561 769.148 79.787 733.917 76.873 726.81C73.959 719.703 65.875 712.881 54.629 711.406C43.366 709.931 41.18 696.82 41.18 696.82C41.18 696.82 57.579 690.975 58.769 690.975C59.231 690.975 64.152 691.632 70.051 692.432L71.206 693.942C71.206 693.942 96.381 765.897 96.666 772.399C96.932 778.138 90.608 852.651 89.08 870.489C89.097 868.961 90.181 779.186 91.371 774.176Z" fill="#100E87"/>
<path d="M191.575 797.876C181.217 810.011 167.288 813.262 167.288 813.262C167.288 813.262 144.938 745.163 141.384 739.246C137.831 733.312 77.424 706.378 77.424 706.378C77.424 706.378 53.137 710.518 44.254 701.634C35.371 692.751 38.338 663.436 38.338 663.436L69.643 659.456L94.303 656.329L96.684 672.017C96.684 672.017 99.935 674.131 104.999 677.418C121.504 688.149 157.162 711.423 160.342 714.373C164.481 718.211 191.575 797.876 191.575 797.876Z" fill="#361CB7"/>
<path d="M104.998 677.419C104.998 677.419 92.526 673.795 87.498 674.399C82.452 674.985 58.059 676.869 58.059 676.869L60.973 663.473C60.973 663.473 64.757 661.732 69.643 659.458L94.303 656.331L96.684 672.019C96.683 672.017 99.935 674.132 104.998 677.419Z" fill="#1F159E"/>
<path d="M190.909 546.176C190.909 546.176 195.129 535.738 195.795 534.628C196.461 533.518 200.681 531.741 201.791 531.963C202.901 532.185 216.448 517.824 217.337 517.676C218.226 517.528 214.45 527.966 213.784 529.298C213.118 530.63 217.829 546.398 217.472 547.953C217.115 549.508 207.344 561.278 207.344 561.278L195.129 564.387L190.909 546.176Z" fill="#FCDFD0"/>
<path d="M105.851 660.558C105.851 660.558 93.272 666.794 76.874 671.982C64.828 675.82 50.721 679.071 38.018 678.875C35.531 668.037 34.34 648.334 34.34 648.334C32.83 655.441 33.381 670.045 33.878 678.662C29.916 678.342 26.132 677.649 22.649 676.459C22.649 676.459 13.499 591.641 20.57 560.087C22.649 550.831 25.9 549.658 29.453 548.699C33.006 547.74 89.806 540.615 94.834 542.179C96.966 542.836 99.364 548.344 100.964 556.392C103.114 567.23 103.824 582.633 100.52 597.024C94.747 622.129 105.851 660.558 105.851 660.558Z" fill="#EDCCD4"/>
<path d="M76.873 671.982C76.873 671.982 88.084 659.439 86.929 653.06C85.774 646.7 84.744 631.456 90.074 626.126C95.404 620.796 90.962 597.255 85.632 580.377C80.302 563.499 87.373 553.123 87.373 553.123L100.965 556.392C103.115 567.23 103.825 582.633 100.521 597.024C94.747 622.128 105.851 660.558 105.851 660.558C105.851 660.558 93.272 666.794 76.873 671.982Z" fill="#E2B5C2"/>
<path d="M188.688 542.17C188.688 542.17 199.348 555.282 196.017 565.498C196.017 565.498 150.268 593.036 145.826 595.257C141.384 597.478 90.305 578.157 90.305 578.157C90.305 578.157 80.258 548.602 94.831 542.171C94.831 542.171 141.828 563.722 143.827 564.388C145.826 565.054 188.688 542.17 188.688 542.17Z" fill="#D8606E"/>
<path d="M92.099 519.473L86.574 517.892C86.84 518.372 87.036 518.905 87.196 519.455L90.287 520.343L106.064 524.874L106.419 523.595L92.099 519.473Z" fill="#8686E0"/>
<path d="M82.255 518.249C82.255 518.249 85.142 517.381 85.42 519.925C85.698 522.469 84.365 523.357 84.365 523.357C84.365 523.357 87.307 519.36 82.255 518.249Z" fill="#E8BAA6"/>
<path d="M356.46 955.996C354.688 958.578 353.606 960.101 353.606 960.101C353.606 960.101 353.551 959.042 353.562 957.191C353.526 946.426 354.939 909.299 375.916 902.225C396.761 895.221 366.224 941.68 356.46 955.996Z" fill="#D8606E"/>
<path d="M353.926 956.547C353.735 958.404 353.593 959.672 353.606 960.1C353.606 960.1 352.895 958.993 351.753 957.087C344.503 945.143 319.616 901.916 339.435 902.731C359.459 903.563 355.256 943.935 353.926 956.547Z" fill="#6158D6"/>
<path d="M353.926 956.547C353.735 958.404 353.593 959.672 353.606 960.1C353.606 960.1 352.895 958.993 351.753 957.087L342.288 916.276L353.926 956.547Z" fill="#361CB7"/>
<path d="M373.24 913.569L356.46 955.996C354.688 958.578 353.606 960.101 353.606 960.101C353.606 960.101 353.551 959.042 353.562 957.191L373.24 913.569Z" fill="#CC485B"/>
<path d="M353.406 957.889C353.406 957.889 343.945 957.818 347.547 960.286C351.149 962.754 363.017 961.455 359.808 959.911C355.953 958.056 353.406 957.889 353.406 957.889Z" fill="#C1C1C1"/>
<path d="M571.116 924.713C569.699 926.778 568.834 927.996 568.834 927.996C568.834 927.996 568.79 927.149 568.799 925.669C568.77 917.06 569.901 887.37 586.676 881.712C603.344 876.111 578.924 913.265 571.116 924.713Z" fill="#D8606E"/>
<path d="M569.09 925.154C568.937 926.639 568.824 927.653 568.834 927.996C568.834 927.996 568.265 927.111 567.352 925.587C561.554 916.036 541.652 881.467 557.502 882.119C573.514 882.782 570.153 915.068 569.09 925.154Z" fill="#6158D6"/>
<path d="M569.09 925.154C568.937 926.639 568.824 927.653 568.834 927.996C568.834 927.996 568.265 927.111 567.352 925.587L559.783 892.951L569.09 925.154Z" fill="#361CB7"/>
<path d="M584.535 890.784L571.116 924.713C569.699 926.778 568.834 927.996 568.834 927.996C568.834 927.996 568.79 927.149 568.799 925.669L584.535 890.784Z" fill="#CC485B"/>
<path d="M568.673 926.227C568.673 926.227 561.107 926.17 563.987 928.144C566.868 930.118 576.359 929.079 573.792 927.844C570.71 926.36 568.673 926.227 568.673 926.227Z" fill="#C1C1C1"/>
<path d="M379.706 841.188C378.483 842.97 377.737 844.02 377.737 844.02C377.737 844.02 377.699 843.289 377.707 842.012C377.682 834.584 378.657 808.967 393.131 804.085C407.513 799.253 386.443 831.31 379.706 841.188Z" fill="#D8606E"/>
<path d="M377.958 841.568C377.826 842.849 377.728 843.724 377.737 844.02C377.737 844.02 377.246 843.256 376.459 841.941C371.457 833.7 354.285 803.873 367.96 804.435C381.775 805.009 378.875 832.866 377.958 841.568Z" fill="#6158D6"/>
<path d="M377.958 841.568C377.826 842.849 377.728 843.724 377.737 844.02C377.737 844.02 377.246 843.256 376.459 841.941L369.928 813.782L377.958 841.568Z" fill="#361CB7"/>
<path d="M391.284 811.913L379.706 841.188C378.483 842.97 377.737 844.02 377.737 844.02C377.737 844.02 377.699 843.289 377.707 842.012L391.284 811.913Z" fill="#CC485B"/>
<path d="M377.598 842.494C377.598 842.494 371.07 842.445 373.555 844.148C376.04 845.851 384.23 844.954 382.015 843.889C379.356 842.609 377.598 842.494 377.598 842.494Z" fill="#C1C1C1"/>
</svg>
